<svg width="256" height="256" viewBox="0 0 256 256" fill="none" xmlns="http://www.w3.org/2000/svg">
<g clip-path="url(#clip0_32_784)">
<path d="M16.5335 68.2665H238.934V233.6H16.5335V68.2665Z" fill="#FAD9FF"/>
<path d="M141.866 114.134H222.933V233.6H141.866V114.134Z" fill="#7D57A4"/>
<path d="M149.866 122.134H214.933V225.6H149.866V122.134Z" fill="#976DC1"/>
<path d="M0 51.2V75.2C0 89.6 11.2 100.8 25.6 100.8C40 100.8 51.2 89.6 51.2 75.2V51.2H0Z" fill="#7D57A4"/>
<path d="M51.2 51.2V75.2C51.2 89.6 62.4 100.8 76.8 100.8C91.2 100.8 102.4 89.6 102.4 75.2V51.2H51.2Z" fill="#D791E2"/>
<path d="M102.4 51.2V75.2C102.4 89.6 113.6 100.8 128 100.8C142.4 100.8 153.6 89.6 153.6 75.2V51.2H102.4Z" fill="#7D57A4"/>
<path d="M153.6 51.2V75.2C153.6 89.6 164.8 100.8 179.2 100.8C193.6 100.8 204.8 89.6 204.8 75.2V51.2H153.6Z" fill="#D791E2"/>
<path d="M204.8 51.2V75.2C204.8 89.6 216 100.8 230.4 100.8C244.8 100.8 256 89.6 256 75.2V51.2H204.8Z" fill="#7D57A4"/>
<path d="M62.4 0H18.6665L0 51.2H51.2L62.4 0Z" fill="#976DC1"/>
<path d="M106.133 0H62.4L51.2 51.2H102.4L106.133 0Z" fill="#F4B0FF"/>
<path d="M149.867 0H106.134L102.4 51.2H153.6L149.867 0Z" fill="#976DC1"/>
<path d="M193.6 0H149.866L153.6 51.2H204.8L193.6 0Z" fill="#F4B0FF"/>
<path d="M237.333 0H193.6L204.8 51.2H256L237.333 0Z" fill="#976DC1"/>
<path d="M0 233.6H256V256H0V233.6Z" fill="#976DC1"/>
<path d="M160 180.8C163.829 180.8 166.934 177.696 166.934 173.866C166.934 170.037 163.829 166.933 160 166.933C156.171 166.933 153.067 170.037 153.067 173.866C153.067 177.696 156.171 180.8 160 180.8Z" fill="#7D57A4"/>
<g clip-path="url(#clip1_32_784)">
<path d="M34.5334 114.134H124.533V144.134H34.5334V114.134Z" fill="#F0F0F0"/>
<path d="M34.5334 174.134H124.533V204.134H34.5334V174.134Z" fill="#D80027"/>
<path d="M34.5334 144.134H124.533V174.134H34.5334V144.134Z" fill="#0052B4"/>
</g>
</g>
<defs>
<clipPath id="clip0_32_784">
<rect width="256" height="256" fill="white"/>
</clipPath>
<clipPath id="clip1_32_784">
<rect x="34.5334" y="114.134" width="90" height="90" rx="10" fill="white"/>
</clipPath>
</defs>
</svg>
